<?xml version="1.0" encoding="UTF-8" standalone="no"?>
<!-- Created with Inkscape (http://www.inkscape.org/) -->

<svg
   xmlns:dc="http://purl.org/dc/elements/1.1/"
   xmlns:cc="http://creativecommons.org/ns#"
   xmlns:rdf="http://www.w3.org/1999/02/22-rdf-syntax-ns#"
   xmlns:svg="http://www.w3.org/2000/svg"
   xmlns="http://www.w3.org/2000/svg"
   xmlns:xlink="http://www.w3.org/1999/xlink"
   xmlns:sodipodi="http://sodipodi.sourceforge.net/DTD/sodipodi-0.dtd"
   xmlns:inkscape="http://www.inkscape.org/namespaces/inkscape"
   width="210mm"
   height="297mm"
   viewBox="0 0 210 297"
   version="1.1"
   id="svg8"
   inkscape:version="0.92.3 (unknown)"
   sodipodi:docname="logo.svg">
  <sodipodi:namedview
     id="base"
     pagecolor="#ffffff"
     bordercolor="#666666"
     borderopacity="1.0"
     inkscape:pageopacity="0.0"
     inkscape:pageshadow="2"
     inkscape:zoom="3.959798"
     inkscape:cx="445.5416"
     inkscape:cy="653.43851"
     inkscape:document-units="mm"
     inkscape:current-layer="layer2"
     showgrid="false"
     inkscape:window-width="1920"
     inkscape:window-height="1025"
     inkscape:window-x="0"
     inkscape:window-y="26"
     inkscape:window-maximized="1"
     inkscape:snap-global="true" />
  <defs
     id="defs2">
    <linearGradient
       inkscape:collect="always"
       id="linearGradient928">
      <stop
         style="stop-color:#78a6e6;stop-opacity:1"
         offset="0"
         id="stop924" />
      <stop
         style="stop-color:#bae5fd;stop-opacity:1"
         offset="1"
         id="stop926" />
    </linearGradient>
    <linearGradient
       inkscape:collect="always"
       id="linearGradient910">
      <stop
         style="stop-color:#053a84;stop-opacity:1"
         offset="0"
         id="stop906" />
      <stop
         style="stop-color:#0a68ec;stop-opacity:1"
         offset="1"
         id="stop908" />
    </linearGradient>
    <inkscape:path-effect
       effect="simplify"
       id="path-effect926"
       is_visible="true"
       steps="20"
       threshold="0.02"
       smooth_angles="10"
       helper_size="0"
       simplify_individual_paths="false"
       simplify_just_coalesce="false" />
    <inkscape:path-effect
       effect="skeletal"
       id="path-effect924"
       is_visible="true"
       pattern="M 0,0 H 1"
       copytype="single_stretched"
       prop_scale="1"
       scale_y_rel="false"
       spacing="0"
       normal_offset="0"
       tang_offset="0"
       prop_units="false"
       vertical_pattern="false"
       fuse_tolerance="0" />
    <inkscape:path-effect
       effect="rough_hatches"
       id="path-effect922"
       is_visible="true"
       direction="8.521971,-18.154955 , 10.299851,0"
       dist_rdm="75;1"
       growth="0"
       do_bend="true"
       bender="8.521971,-13.154955 , 5,0"
       bottom_edge_variation="2.4186357;1"
       top_edge_variation="2.4186357;1"
       bottom_tgt_variation="0;1"
       top_tgt_variation="0;1"
       scale_bf="1"
       scale_bb="1"
       scale_tf="1"
       scale_tb="1"
       top_smth_variation="0;1"
       bottom_smth_variation="0;1"
       fat_output="true"
       stroke_width_top="1"
       stroke_width_bottom="1"
       front_thickness="1"
       back_thickness="0.25" />
    <inkscape:path-effect
       effect="gears"
       id="path-effect920"
       is_visible="true"
       teeth="10"
       phi="5"
       min_radius="5" />
    <radialGradient
       inkscape:collect="always"
       xlink:href="#linearGradient910"
       id="radialGradient914"
       cx="104.75315"
       cy="137.05713"
       fx="104.75315"
       fy="137.05713"
       r="24.218405"
       gradientTransform="matrix(1,0,0,0.52726072,0,57.336672)"
       gradientUnits="userSpaceOnUse" />
    <radialGradient
       inkscape:collect="always"
       xlink:href="#linearGradient928"
       id="radialGradient930"
       cx="103.74468"
       cy="137.3033"
       fx="103.74468"
       fy="137.3033"
       r="26.037784"
       gradientTransform="matrix(0.35946181,0,0,0.47591248,66.452431,64.414638)"
       gradientUnits="userSpaceOnUse" />
  </defs>
  <metadata
     id="metadata5">
    <rdf:RDF>
      <cc:Work
         rdf:about="">
        <dc:format>image/svg+xml</dc:format>
        <dc:type
           rdf:resource="http://purl.org/dc/dcmitype/StillImage" />
        <dc:title />
      </cc:Work>
    </rdf:RDF>
  </metadata>
  <g
     inkscape:groupmode="layer"
     id="layer2"
     inkscape:label="Layer 4">
    <rect
       style="fill:#ffffff;fill-opacity:1;stroke:none;stroke-width:0.30825141;stroke-linecap:square;stroke-linejoin:bevel;stroke-miterlimit:4;stroke-dasharray:none;stroke-dashoffset:0;stroke-opacity:1"
       id="rect978"
       width="64"
       height="32"
       x="92.314255"
       y="106.64005"
       inkscape:export-xdpi="198.43752"
       inkscape:export-ydpi="198.43752" />
  </g>
  <g
     id="layer1"
     inkscape:groupmode="layer"
     inkscape:label="Layer 1">
    <text
       id="text1210"
       y="168.19232"
       x="30.899553"
       style="font-style:normal;font-weight:normal;font-size:3.17499995px;line-height:1.25;font-family:sans-serif;letter-spacing:0px;word-spacing:0px;fill:#000000;fill-opacity:1;stroke:none;stroke-width:0.26458332"
       xml:space="preserve"><tspan
         style="font-style:normal;font-variant:normal;font-weight:normal;font-stretch:normal;font-size:16.93333244px;font-family:sans-serif;-inkscape-font-specification:'sans-serif, Normal';font-variant-ligatures:normal;font-variant-caps:normal;font-variant-numeric:normal;font-feature-settings:normal;text-align:start;writing-mode:lr-tb;text-anchor:start;stroke-width:0.26458332"
         y="168.19232"
         x="30.899553"
         id="tspan1208"
         sodipodi:role="line">T</tspan></text>
    <path
       sodipodi:nodetypes="czzzzc"
       inkscape:connector-curvature="0"
       id="path1222"
       d="m 18.898809,146.51822 c 5.198969,-1.56185 11.606409,1.04219 11.727957,4.22616 0.121548,3.18398 -7.256871,3.63899 -8.068665,8.02339 -0.811794,4.38441 3.486105,9.16612 7.521182,10.36074 4.035078,1.19462 8.129607,-1.95102 12.643647,-1.9859 4.51404,-0.0349 5.909125,2.93544 19.265164,1.01474"
       style="fill:none;stroke:#000000;stroke-width:0.26458332px;stroke-linecap:butt;stroke-linejoin:miter;stroke-opacity:1" />
    <text
       id="text1275"
       y="165.505"
       x="42.130833"
       style="font-style:normal;font-weight:normal;font-size:3.17499995px;line-height:1.25;font-family:sans-serif;letter-spacing:0px;word-spacing:0px;fill:#000000;fill-opacity:1;stroke:none;stroke-width:0.26458332"
       xml:space="preserve"><tspan
         style="font-style:normal;font-variant:normal;font-weight:normal;font-stretch:normal;font-size:11.99444485px;font-family:sans-serif;-inkscape-font-specification:'sans-serif, Normal';font-variant-ligatures:normal;font-variant-caps:normal;font-variant-numeric:normal;font-feature-settings:normal;text-align:start;writing-mode:lr-tb;text-anchor:start;stroke-width:0.26458332"
         y="165.505"
         x="42.130833"
         id="tspan1273"
         sodipodi:role="line">F</tspan></text>
    <path
       sodipodi:nodetypes="czzzzc"
       inkscape:connector-curvature="0"
       id="path1222-9"
       d="m 19.382365,147.63924 c 4.913182,-1.40527 10.557968,0.56197 10.672834,3.42675 0.114867,2.86477 -6.447523,3.52238 -7.214693,7.46725 -0.76717,3.94486 3.294474,8.37473 7.107744,9.44959 3.813272,1.07487 7.682725,-1.75543 11.948629,-1.7868 4.265906,-0.0314 5.584302,2.64115 18.206163,0.91301"
       style="fill:none;stroke:#000000;stroke-width:0.24397539px;stroke-linecap:butt;stroke-linejoin:miter;stroke-opacity:1" />
    <path
       sodipodi:nodetypes="czzzzc"
       inkscape:connector-curvature="0"
       id="path1222-9-2"
       d="m 19.80091,148.64794 c 4.643097,-1.26438 9.660195,0.20495 9.752043,2.54865 0.09185,2.3437 -6.420169,4.18153 -6.466949,7.58235 -0.04678,3.40081 3.096319,7.20591 6.699967,8.173 3.603649,0.96711 7.260391,-1.57943 11.291791,-1.60766 4.0314,-0.0282 5.277321,2.37636 17.205336,0.82147"
       style="fill:none;stroke:#000000;stroke-width:0.22497156px;stroke-linecap:butt;stroke-linejoin:miter;stroke-opacity:1" />
    <path
       sodipodi:nodetypes="cccssccsscccc"
       inkscape:connector-curvature="0"
       d="m 79.711099,127.90942 c -12.621861,1.72814 -13.940258,-0.94441 -18.206162,-0.91301 -4.265905,0.0314 -8.135358,2.86167 -11.94863,1.7868 -3.81327,-1.07486 -7.874914,-5.50473 -7.107744,-9.44959 0.76717,-3.94487 7.32956,-4.60248 7.214693,-7.46725 -0.114866,-2.86478 -5.759652,-4.83202 -10.672834,-3.42675 l -0.483556,-1.12102 c 5.198969,-1.56185 11.606409,1.04219 11.727957,4.22616 0.121548,3.18397 -7.256871,3.63898 -8.068665,8.02339 -0.811794,4.38441 3.486105,9.16611 7.521182,10.36074 4.035079,1.19462 8.129608,-1.95103 12.643647,-1.9859 4.514041,-0.0349 5.909125,2.93543 19.265166,1.01474 z"
       style="fill:#8ee1f6;fill-opacity:1;stroke:none;stroke-width:0.24397539px;stroke-linecap:butt;stroke-linejoin:miter;stroke-opacity:1"
       id="path1222-9-0" />
    <path
       sodipodi:nodetypes="czzzzc"
       inkscape:connector-curvature="0"
       id="path1222-3"
       d="m 34.057035,196.82549 c 6.635542,-1.36139 12.909347,1.34286 12.863852,5.39547 -0.0455,4.05261 -8.939465,5.72485 -9.538648,9.66041 -0.599182,3.93556 4.622,6.66047 8.490035,7.58782 3.868034,0.92735 6.459173,-2.18487 12.409786,-2.15293 5.950614,0.0319 9.10571,4.1415 18.764035,1.18178"
       style="fill:none;stroke:#000000;stroke-width:0.26458332px;stroke-linecap:butt;stroke-linejoin:miter;stroke-opacity:1" />
    <path
       sodipodi:nodetypes="czzzzc"
       inkscape:connector-curvature="0"
       id="path1222-3-4"
       d="m 32.763295,200.97295 c 6.291479,-1.56008 10.771325,0.23918 10.918415,2.65117 0.14709,2.41199 -6.622423,3.26094 -7.652054,7.9475 -1.029631,4.68656 1.977223,10.71548 8.964979,12.4767 6.987756,1.76122 9.739123,-3.04647 15.001292,-3.01457 5.262168,0.0319 8.848978,4.24079 25.679829,1.7209"
       style="fill:none;stroke:#000000;stroke-width:0.29089382px;stroke-linecap:butt;stroke-linejoin:miter;stroke-opacity:1" />
    <path
       sodipodi:nodetypes="czzzzc"
       inkscape:connector-curvature="0"
       id="path1222-3-4-2"
       d="m 33.134304,198.96646 c 5.719219,-1.56099 11.865803,0.77434 11.999514,3.95655 0.133711,3.18223 -7.48192,4.40538 -8.374948,8.78736 -0.893029,4.38199 3.09996,8.09198 8.674715,9.85389 5.574755,1.76191 8.44199,-2.28403 13.40774,-2.31889 4.965752,-0.0349 8.471551,3.73563 22.72979,1.28145"
       style="fill:none;stroke:#000000;stroke-width:0.27742925px;stroke-linecap:butt;stroke-linejoin:miter;stroke-opacity:1" />
    <path
       id="path1222-3-4-2-1"
       style="fill:url(#radialGradient930);fill-opacity:1;stroke:none;stroke-width:0.27742925px;stroke-linecap:butt;stroke-linejoin:miter;stroke-opacity:1"
       d="m 147.11441,132.57381 c -14.25824,2.45418 -17.76403,-1.31635 -22.72979,-1.28145 -4.96575,0.0349 -7.83298,4.0808 -13.40774,2.31889 -5.57475,-1.76191 -9.56774,-5.4719 -8.67471,-9.85389 0.89303,-4.38198 8.50866,-5.60513 8.37495,-8.78736 -0.13372,-3.18221 -6.2803,-5.51754 -11.999519,-3.95655 l -0.371009,2.00649 c 6.291478,-1.56008 10.771328,0.23918 10.918418,2.65117 0.14709,2.41199 -6.2917,3.15464 -7.36858,8.06562 -1.02776,4.68697 4.3283,11.31502 11.9259,12.66065 4.31643,0.76449 6.10302,-3.98493 11.1427,-3.90723 3.57397,0.0551 12.5714,5.10004 25.45713,1.39532 z"
       inkscape:connector-curvature="0"
       sodipodi:nodetypes="ccsssccsssscc"
       inkscape:export-xdpi="198.43752"
       inkscape:export-ydpi="198.43752" />
  </g>
  <g
     inkscape:groupmode="layer"
     id="layer3"
     inkscape:label="Layer 2">
    <g
       aria-label="T"
       style="font-style:normal;font-weight:normal;font-size:5.13438845px;line-height:1.25;font-family:sans-serif;letter-spacing:0px;word-spacing:0px;fill:#9a9a9a;fill-opacity:1;stroke:none;stroke-width:0.42786562;stroke-opacity:1"
       id="text1210-7"
       transform="translate(1.0583333)">
      <path
         d="m 51.285795,109.8833 h 16.887322 v 2.13941 h -7.621064 v 17.68957 H 58.37232 v -17.68957 h -7.086525 z"
         style="font-style:normal;font-variant:normal;font-weight:normal;font-stretch:normal;font-size:27.38339996px;font-family:sans-serif;-inkscape-font-specification:'sans-serif, Normal';font-variant-ligatures:normal;font-variant-caps:normal;font-variant-numeric:normal;font-feature-settings:normal;text-align:start;writing-mode:lr-tb;text-anchor:start;fill:#9a9a9a;fill-opacity:1;stroke:none;stroke-width:0.42786562;stroke-opacity:1"
         id="path4848"
         inkscape:connector-curvature="0"
         sodipodi:nodetypes="ccccccccc" />
    </g>
    <g
       aria-label="F"
       style="font-style:normal;font-weight:normal;font-size:4.66782856px;line-height:1.25;font-family:sans-serif;letter-spacing:0px;word-spacing:0px;fill:#ffa028;fill-opacity:1;stroke:none;stroke-width:0.38898572;stroke-opacity:1"
       id="text1275-8"
       transform="translate(-0.54806543,-0.37797619)">
      <path
         d="m 66.866158,113.54897 h 7.387691 v 1.46376 h -5.648398 v 3.78856 h 5.097335 v 1.46377 h -5.097335 v 6.13918 h -1.739293 z"
         style="font-style:normal;font-variant:normal;font-weight:normal;font-stretch:normal;font-size:17.63402176px;font-family:sans-serif;-inkscape-font-specification:'sans-serif, Normal';font-variant-ligatures:normal;font-variant-caps:normal;font-variant-numeric:normal;font-feature-settings:normal;text-align:start;writing-mode:lr-tb;text-anchor:start;fill:#ffa028;fill-opacity:1;stroke:none;stroke-width:0.38898572;stroke-opacity:1"
         id="path4851"
         inkscape:connector-curvature="0" />
    </g>
    <g
       aria-label="T"
       style="font-style:normal;font-weight:normal;font-size:5.13438845px;line-height:1.25;font-family:sans-serif;letter-spacing:0px;word-spacing:0px;fill:#b3b3b3;fill-opacity:1;stroke:none;stroke-width:0.42786562;stroke-opacity:1"
       id="text1210-7-1"
       transform="matrix(1.2808572,0,0,1.2578714,49.653763,-27.375604)"
       inkscape:export-xdpi="198.43752"
       inkscape:export-ydpi="198.43752">
      <path
         d="m 51.285795,109.8833 h 16.887322 v 2.13941 h -7.621064 v 17.68957 H 58.37232 v -17.68957 h -7.086525 z"
         style="font-style:normal;font-variant:normal;font-weight:normal;font-stretch:normal;font-size:27.38339996px;font-family:sans-serif;-inkscape-font-specification:'sans-serif, Normal';font-variant-ligatures:normal;font-variant-caps:normal;font-variant-numeric:normal;font-feature-settings:normal;text-align:start;writing-mode:lr-tb;text-anchor:start;fill:#bebebe;fill-opacity:1;stroke:none;stroke-width:0.42786562;stroke-opacity:1"
         id="path4848-3"
         inkscape:connector-curvature="0"
         sodipodi:nodetypes="ccccccccc" />
    </g>
    <g
       aria-label="F"
       style="font-style:normal;font-weight:normal;font-size:4.66782856px;line-height:1.25;font-family:sans-serif;letter-spacing:0px;word-spacing:0px;fill:#ffa028;fill-opacity:1;stroke:none;stroke-width:0.38898572;stroke-opacity:1"
       id="text1275-8-1"
       transform="matrix(1.0983863,0,0,1.0983863,60.444621,-8.6773292)"
       inkscape:export-xdpi="198.43752"
       inkscape:export-ydpi="198.43752">
      <path
         d="m 66.866158,113.54897 h 7.387691 v 1.46376 h -5.648398 v 3.78856 h 5.097335 v 1.46377 h -5.097335 v 6.13918 h -1.739293 z"
         style="font-style:normal;font-variant:normal;font-weight:normal;font-stretch:normal;font-size:17.63402176px;font-family:sans-serif;-inkscape-font-specification:'sans-serif, Normal';font-variant-ligatures:normal;font-variant-caps:normal;font-variant-numeric:normal;font-feature-settings:normal;text-align:start;writing-mode:lr-tb;text-anchor:start;fill:#ffa028;fill-opacity:1;stroke:none;stroke-width:0.38898572;stroke-opacity:1"
         id="path4851-5"
         inkscape:connector-curvature="0" />
    </g>
  </g>
  <g
     inkscape:groupmode="layer"
     id="layer5"
     inkscape:label="Layer 3"
     style="display:inline">
    <path
       id="path1222-9-2-2"
       style="fill:#2061f4;fill-opacity:1;stroke:none;stroke-width:0.22497156px;stroke-linecap:butt;stroke-linejoin:miter;stroke-opacity:1"
       d="m 77.891154,126.96613 c -11.928012,1.55489 -13.173934,-0.84967 -17.205334,-0.82147 -4.031401,0.0282 -7.688142,2.57477 -11.291792,1.60766 -3.603648,-0.96709 -6.746747,-4.77219 -6.699967,-8.173 0.04678,-3.40082 6.558799,-5.23865 6.466949,-7.58235 -0.09185,-2.3437 -5.108946,-3.81303 -9.752043,-2.54865 l -0.418545,-1.0087 c 4.913182,-1.40527 10.557968,0.56197 10.672834,3.42675 0.114867,2.86477 -6.447523,3.52238 -7.214693,7.46725 -0.76717,3.94486 3.294474,8.37473 7.107744,9.44959 3.813272,1.07487 7.682725,-1.75543 11.948631,-1.7868 4.265905,-0.0314 5.584303,2.64115 18.206163,0.91301 z"
       inkscape:connector-curvature="0"
       sodipodi:nodetypes="cccssccsscccc" />
    <path
       id="path1222-3-4-2-3"
       style="fill:url(#radialGradient914);fill-opacity:1;stroke:none;stroke-width:0.27742925px;stroke-linecap:butt;stroke-linejoin:miter;stroke-opacity:1"
       d="m 147.11441,132.57381 c -14.25824,2.45418 -17.76404,-1.31635 -22.72979,-1.28145 -4.96575,0.0349 -7.83298,4.0808 -13.40774,2.31889 -5.57475,-1.76191 -9.56774,-5.4719 -8.67471,-9.85389 0.89302,-4.38198 8.50866,-5.60513 8.37494,-8.78736 -0.13371,-3.18221 -6.28029,-5.51754 -11.999509,-3.95655 l 0.4216,-2.14097 c 6.635539,-1.36139 13.410479,1.34286 13.364979,5.39547 -0.0455,4.05261 -9.08441,5.85848 -9.6836,9.79404 -0.30428,1.99853 0.60737,4.06315 2.3995,5.72193 1.73698,1.60774 4.29465,2.83424 6.33166,3.24983 5.28306,1.07784 8.93059,-4.93457 13.15932,-4.25906 4.22872,0.6755 9.74088,6.28209 17.91833,1.77034 z"
       inkscape:connector-curvature="0"
       sodipodi:nodetypes="ccssscccssszcc"
       inkscape:export-xdpi="198.43752"
       inkscape:export-ydpi="198.43752" />
    <path
       id="path1222-3-4-2-3-5"
       style="display:inline;fill:none;fill-opacity:1;stroke:#ffffff;stroke-width:0.277;stroke-linecap:square;stroke-linejoin:bevel;stroke-opacity:1;stroke-miterlimit:4;stroke-dasharray:none"
       d="m 147.11441,132.57381 c -14.25824,2.45418 -17.76404,-1.31635 -22.72979,-1.28145 -4.96575,0.0349 -7.83298,4.0808 -13.40774,2.31889 -5.57475,-1.76191 -9.56774,-5.4719 -8.67471,-9.85389 0.89302,-4.38198 8.50866,-5.60513 8.37494,-8.78736 -0.13371,-3.18221 -6.28029,-5.51754 -11.999509,-3.95655"
       inkscape:connector-curvature="0"
       sodipodi:nodetypes="ccsssc"
       inkscape:export-xdpi="198.43752"
       inkscape:export-ydpi="198.43752" />
  </g>
</svg>
